# xmcd CD database file
#
# Track frame offsets:
#	150
#	53450
#	112288
#	170921
#
# Disc length: 2815 seconds
#
# Revision: 0
# Processed by: cddbd v1.5.1PL0 Copyright (c) Steve Scherf et al.
# Submitted via: CDex 1.51
#
DISCID=340afd04
DTITLE=John Abercrombie - In Hamburg [CD1]
DYEAR=1986
DGENRE=Jazz
TTITLE0=Bass Desires (Erskine)
TTITLE1=Hippityville (Abercrombie)
TTITLE2=Ralph's Piano Waltz (Abercrombie)
TTITLE3=Alice In Wonderland (Fain/Hilliard)
EXTD=YEAR: 1986
EXTT0=
EXTT1=
EXTT2=
EXTT3=
PLAYORDER=
